<svg width="30" height="30" viewBox="0 0 30 30" fill="none" xmlns="http://www.w3.org/2000/svg">
    <path fill-rule="evenodd" clip-rule="evenodd" d="M24.6005 15.2273C24.6005 14.5182 24.5369 13.8364 24.4187 13.1818H15.0005V17.05H20.3823C20.1505 18.3 19.4459 19.3591 18.3869 20.0682V22.5773H21.6187C23.5096 20.8364 24.6005 18.2727 24.6005 15.2273Z" fill="#4285F4"/>
    <path fill-rule="evenodd" clip-rule="evenodd" d="M15.0003 25C17.7003 25 19.964 24.1045 21.6185 22.5772L18.3867 20.0681C17.4912 20.6681 16.3458 21.0227 15.0003 21.0227C12.3958 21.0227 10.1912 19.2636 9.40487 16.9H6.06396V19.4909C7.70942 22.7591 11.0912 25 15.0003 25Z" fill="#34A853"/>
    <path fill-rule="evenodd" clip-rule="evenodd" d="M9.40455 16.8999C9.20455 16.2999 9.09091 15.659 9.09091 14.9999C9.09091 14.3409 9.20455 13.6999 9.40455 13.0999V10.509H6.06364C5.38636 11.859 5 13.3863 5 14.9999C5 16.6136 5.38636 18.1409 6.06364 19.4909L9.40455 16.8999Z" fill="#FBBC05"/>
    <path fill-rule="evenodd" clip-rule="evenodd" d="M15.0003 8.97727C16.4685 8.97727 17.7867 9.48182 18.8231 10.4727L21.6912 7.60455C19.9594 5.99091 17.6958 5 15.0003 5C11.0912 5 7.70942 7.24091 6.06396 10.5091L9.40487 13.1C10.1912 10.7364 12.3958 8.97727 15.0003 8.97727Z" fill="#EA4335"/>
</svg>
