<svg width="30" height="30" viewBox="0 0 30 30" fill="none" xmlns="http://www.w3.org/2000/svg">
    <path d="M15.7511 5.53846C16.8017 5.53846 18.1186 4.8061 18.9029 3.82962C19.6131 2.94469 20.131 1.70884 20.131 0.472981C20.131 0.305149 20.1162 0.137317 20.0866 0C18.9177 0.0457724 17.512 0.808645 16.6685 1.8309C16.0027 2.60903 15.396 3.82963 15.396 5.08074C15.396 5.26383 15.4256 5.44692 15.4404 5.50795C15.5144 5.5232 15.6328 5.53846 15.7511 5.53846ZM12.0519 24C13.4872 24 14.1235 23.0083 15.9139 23.0083C17.7339 23.0083 18.1334 23.9695 19.7315 23.9695C21.3 23.9695 22.3505 22.4743 23.3419 21.0095C24.4517 19.3312 24.9104 17.6834 24.94 17.6071C24.8364 17.5766 21.8327 16.3102 21.8327 12.7552C21.8327 9.67324 24.2002 8.28481 24.3333 8.178C22.7649 5.85887 20.3826 5.79784 19.7315 5.79784C17.9707 5.79784 16.5354 6.89638 15.6328 6.89638C14.6562 6.89638 13.3688 5.85887 11.8448 5.85887C8.94458 5.85887 6 8.33058 6 12.9994C6 15.8983 7.09497 18.965 8.44148 20.9485C9.59564 22.6268 10.6018 24 12.0519 24Z" fill="white"/>
</svg>
